<svg xmlns="http://www.w3.org/2000/svg" xmlns:xlink="http://www.w3.org/1999/xlink" width="2000" zoomAndPan="magnify" viewBox="0 0 1500 1499.999933" height="2000" preserveAspectRatio="xMidYMid meet" version="1.0"><path fill="#465548" d="M 1087.046875 1212.371094 C 1060.15625 1228.035156 1031.628906 1239.023438 1004.273438 1253.289062 C 1004.507812 1253.753906 1004.742188 1254.222656 1004.976562 1254.925781 C 1034.671875 1244.871094 1061.558594 1232.011719 1089.382812 1217.515625 C 1089.382812 1217.515625 1089.851562 1217.980469 1089.851562 1217.980469 C 1015.730469 1267.550781 932.726562 1288.828125 846.917969 1306.832031 C 846.917969 1307.300781 847.148438 1307.765625 847.148438 1308.234375 C 875.675781 1304.960938 905.605469 1302.625 932.960938 1293.269531 C 958.445312 1284.621094 985.804688 1272.460938 1012.222656 1267.785156 L 1011.992188 1267.785156 C 1013.394531 1271.527344 961.953125 1288.59375 953.769531 1291.867188 C 928.519531 1301.6875 904.433594 1304.261719 878.480469 1309.871094 C 849.253906 1316.183594 820.261719 1320.394531 790.566406 1322.261719 C 758.765625 1324.367188 727.902344 1318.054688 696.339844 1314.546875 C 667.8125 1311.273438 639.988281 1305.894531 611.699219 1300.050781 C 585.742188 1294.671875 557.21875 1286.722656 533.136719 1275.5 C 509.519531 1264.511719 486.605469 1253.054688 463.925781 1239.960938 C 451.535156 1232.710938 439.609375 1224.996094 428.152344 1216.109375 C 420.902344 1210.734375 401.730469 1190.390625 393.078125 1191.792969 C 425.8125 1222.65625 462.054688 1244.636719 501.804688 1265.445312 C 520.976562 1275.5 541.085938 1284.386719 561.660156 1290.933594 C 581.066406 1297.246094 604.214844 1297.945312 621.75 1308.9375 C 591.121094 1307.066406 560.023438 1297.480469 531.730469 1286.023438 C 499.933594 1272.929688 468.367188 1259.835938 441.480469 1238.089844 C 416.695312 1218.214844 388.636719 1203.484375 364.789062 1181.972656 C 340.46875 1159.996094 317.089844 1135.445312 296.746094 1109.726562 C 257.230469 1059.21875 228.707031 1001 207.664062 940.910156 C 185.917969 878.949219 173.292969 807.167969 178.902344 741.464844 C 184.984375 671.789062 192.464844 604.917969 221.925781 540.617188 C 250.21875 478.421875 285.992188 422.539062 329.246094 369.929688 C 332.988281 365.488281 337.898438 360.578125 340.472656 355.199219 C 342.574219 350.523438 342.339844 345.378906 344.445312 340.9375 C 351.226562 327.84375 373.90625 316.152344 385.832031 308.4375 C 412.484375 291.367188 438.207031 272.898438 465.796875 257.699219 C 525.652344 224.964844 592.992188 191.996094 661.265625 183.578125 C 737.722656 174.226562 818.859375 173.757812 894.148438 190.59375 C 931.324219 198.777344 967.800781 209.53125 1002.636719 225.199219 C 1038.410156 241.097656 1068.105469 263.3125 1099.4375 286.226562 C 1098.96875 286.691406 1098.503906 287.160156 1098.269531 287.628906 C 1074.183594 275 1050.804688 260.972656 1026.722656 247.878906 C 1014.328125 241.097656 1001 238.292969 987.671875 233.617188 C 980.660156 231.042969 973.878906 228.003906 966.863281 225.667969 C 962.1875 224.03125 957.042969 224.261719 954.238281 223.796875 C 927.582031 219.585938 900.925781 211.167969 873.804688 206.492188 C 858.839844 203.921875 843.875 200.179688 828.914062 197.84375 C 819.09375 196.207031 800.152344 192.699219 791.5 198.542969 C 844.578125 208.363281 897.421875 215.144531 948.625 232.679688 C 998.664062 249.984375 1047.996094 274.535156 1090.085938 306.800781 C 1127.261719 335.328125 1163.503906 366.191406 1191.328125 403.601562 C 1222.890625 445.6875 1252.121094 488.242188 1275.5 535.472656 C 1286.023438 556.75 1295.375 580.367188 1302.15625 603.28125 C 1305.429688 614.738281 1308 626.425781 1311.039062 637.882812 C 1313.847656 648.40625 1311.976562 656.121094 1314.546875 666.410156 C 1319.457031 687.21875 1322.496094 704.523438 1322.03125 725.800781 C 1321.5625 755.261719 1322.964844 784.019531 1320.394531 813.480469 C 1318.054688 839.667969 1315.015625 865.855469 1308.9375 891.574219 C 1306.597656 901.628906 1302.15625 907.707031 1298.179688 916.59375 C 1293.035156 928.515625 1290.230469 942.078125 1284.855469 954.472656 C 1266.382812 996.558594 1243.9375 1032.332031 1212.605469 1065.300781 C 1172.621094 1107.386719 1129.367188 1146.667969 1077.691406 1174.726562 C 1051.972656 1188.753906 1023.914062 1200.679688 996.324219 1210.265625 C 981.125 1215.644531 965.929688 1218.683594 950.027344 1221.722656 C 936.933594 1224.292969 920.800781 1224.761719 908.644531 1229.90625 C 909.109375 1232.710938 911.449219 1236.21875 906.070312 1237.855469 C 921.738281 1239.960938 942.3125 1231.308594 957.511719 1228.269531 C 973.175781 1225.230469 993.519531 1224.996094 1008.015625 1218.214844 C 1007.3125 1219.851562 1006.378906 1221.253906 1004.976562 1223.828125 C 1014.09375 1219.851562 1020.40625 1221.722656 1029.761719 1220.554688 C 1034.4375 1230.140625 1066.234375 1213.070312 1074.183594 1211.667969 C 1066.703125 1215.175781 1024.617188 1227.800781 1024.851562 1235.75 C 1047.296875 1232.246094 1066.703125 1220.085938 1087.046875 1212.371094 Z M 392.144531 982.996094 C 390.273438 978.789062 388.636719 974.578125 386.765625 970.371094 C 386.296875 970.605469 386.066406 970.839844 385.597656 970.839844 C 387.234375 975.28125 388.402344 979.722656 392.144531 982.996094 C 394.949219 987.90625 397.523438 992.816406 400.328125 997.726562 C 399.625 991.414062 396.351562 986.972656 392.144531 982.996094 Z M 1198.109375 434.230469 C 1198.339844 436.335938 1199.511719 437.269531 1201.847656 437.269531 C 1200.445312 436.335938 1199.511719 435.164062 1198.109375 434.230469 C 1196.003906 420.433594 1176.597656 401.964844 1167.710938 391.675781 C 1157.65625 379.75 1148.070312 365.253906 1134.976562 356.371094 C 1140.589844 370.398438 1156.019531 383.257812 1165.839844 394.480469 C 1177.0625 407.339844 1186.417969 420.433594 1196.003906 434.699219 C 1189.925781 437.738281 1173.089844 416.929688 1168.414062 412.953125 C 1167.945312 413.1875 1167.710938 413.65625 1167.246094 413.886719 C 1170.050781 419.734375 1171.921875 422.070312 1177.296875 425.8125 C 1177.0625 426.28125 1176.597656 427.449219 1175.660156 429.554688 C 1201.148438 460.417969 1223.59375 491.984375 1240.195312 528.925781 C 1249.3125 549.035156 1253.054688 571.480469 1259.601562 592.523438 C 1265.679688 611.929688 1272.226562 631.335938 1276.671875 651.210938 C 1277.839844 651.210938 1278.773438 651.210938 1280.644531 651.210938 C 1286.257812 697.039062 1293.972656 747.308594 1286.957031 793.371094 C 1280.644531 836.160156 1272.226562 881.519531 1257.261719 922.203125 C 1241.832031 963.824219 1221.488281 1000.066406 1192.730469 1033.96875 C 1180.804688 1047.996094 1169.816406 1061.558594 1156.488281 1074.886719 C 1140.121094 1091.019531 1121.183594 1104.347656 1104.816406 1120.246094 C 1105.050781 1120.714844 1105.28125 1120.949219 1105.75 1121.414062 C 1112.765625 1117.441406 1145.03125 1091.722656 1149.941406 1095.226562 C 1140.589844 1111.363281 1114.636719 1120.480469 1098.96875 1129.367188 C 1091.253906 1133.574219 1080.964844 1136.144531 1073.71875 1140.824219 C 1069.042969 1143.863281 1066 1147.835938 1061.324219 1151.109375 C 1044.722656 1162.800781 1023.679688 1169.347656 1004.507812 1175.425781 C 984.167969 1181.738281 960.550781 1192.730469 939.273438 1193.898438 C 960.550781 1177.765625 993.753906 1172.621094 1018.304688 1162.566406 C 1041.683594 1152.980469 1063.664062 1140.824219 1084.003906 1125.859375 C 1125.15625 1095.460938 1165.140625 1058.519531 1196.238281 1017.601562 C 1225.933594 978.320312 1247.675781 927.113281 1259.835938 879.648438 C 1265.914062 856.035156 1269.1875 831.484375 1271.992188 807.402344 C 1274.800781 782.382812 1281.113281 751.519531 1276.203125 726.5 C 1272.929688 756.195312 1269.421875 785.65625 1262.171875 814.882812 C 1255.394531 842.238281 1250.949219 871.230469 1239.257812 896.71875 C 1225.699219 926.648438 1208.394531 952.835938 1191.5625 980.660156 C 1176.832031 1004.976562 1162.101562 1029.757812 1139.1875 1047.53125 C 1165.140625 1017.132812 1190.15625 981.828125 1203.953125 944.183594 C 1188.289062 964.058594 1178 989.074219 1163.738281 1010.117188 C 1151.109375 1028.824219 1136.613281 1047.53125 1120.480469 1062.960938 C 1100.605469 1081.902344 1078.628906 1102.242188 1055.949219 1117.910156 C 1047.0625 1123.988281 1037.007812 1130.535156 1027.1875 1136.847656 C 1016.433594 1143.863281 1005.910156 1151.578125 994.453125 1157.890625 C 945.820312 1184.78125 883.390625 1197.640625 827.976562 1200.914062 C 772.09375 1204.1875 718.082031 1203.484375 662.667969 1195.066406 C 664.539062 1194.132812 665.242188 1193.898438 665.941406 1193.429688 C 633.675781 1184.078125 604.214844 1170.515625 574.285156 1155.085938 C 559.324219 1147.367188 545.527344 1138.484375 531.730469 1128.898438 C 524.484375 1123.988281 499.464844 1113 497.363281 1104.347656 C 488.710938 1104.113281 479.359375 1090.316406 473.746094 1084.707031 C 465.09375 1076.523438 455.742188 1068.574219 447.792969 1059.6875 C 431.894531 1041.683594 417.628906 1021.808594 403.132812 1002.871094 C 404.769531 1016.898438 420.203125 1028.824219 428.152344 1039.578125 C 437.738281 1052.441406 447.324219 1065.066406 457.847656 1077.222656 C 477.488281 1099.4375 499.464844 1118.84375 523.78125 1135.914062 C 573.117188 1170.75 633.441406 1196.238281 693.300781 1205.589844 C 757.832031 1215.644531 822.832031 1206.757812 887.601562 1208.394531 C 916.125 1209.097656 945.351562 1200.445312 972.476562 1192.496094 C 988.375 1187.820312 1003.808594 1181.972656 1019.472656 1175.894531 C 1030.695312 1171.6875 1050.570312 1159.292969 1062.496094 1159.996094 C 1021.8125 1184.3125 975.75 1195.066406 932.960938 1214.242188 C 938.105469 1217.515625 960.316406 1207.925781 965.929688 1206.058594 C 975.28125 1203.25 984.167969 1200.210938 993.753906 1198.339844 C 1012.457031 1194.601562 1031.398438 1186.882812 1048.699219 1178.699219 C 1086.34375 1160.929688 1119.078125 1135.210938 1153.917969 1112.765625 C 1168.648438 1103.179688 1183.144531 1090.085938 1193.898438 1076.054688 C 1201.382812 1066 1209.796875 1060.855469 1217.515625 1050.570312 C 1225.464844 1040.28125 1234.117188 1029.527344 1242.066406 1018.535156 C 1250.949219 1006.144531 1267.316406 988.84375 1268.253906 972.941406 C 1266.148438 976.449219 1264.511719 979.023438 1262.875 981.59375 C 1262.640625 981.59375 1262.640625 981.359375 1262.40625 981.359375 C 1269.65625 964.992188 1276.671875 948.390625 1283.917969 932.023438 C 1284.152344 932.023438 1284.152344 932.023438 1284.386719 932.023438 C 1283.21875 937.167969 1281.8125 942.078125 1280.644531 947.222656 C 1281.113281 947.457031 1281.582031 947.457031 1282.046875 947.691406 C 1287.191406 928.75 1293.503906 910.511719 1298.414062 891.574219 C 1304.027344 870.53125 1305.664062 847.617188 1308.9375 825.871094 C 1312.910156 801.085938 1312.445312 776.535156 1313.144531 751.519531 C 1313.847656 728.371094 1308 708.496094 1304.027344 685.816406 C 1288.128906 593.460938 1244.167969 512.558594 1194.367188 434.699219 C 1196.703125 434.464844 1197.40625 434.230469 1198.109375 434.230469 Z M 1019.238281 292.304688 C 1026.953125 303.761719 1047.53125 314.28125 1059.453125 321.765625 C 1066.703125 326.441406 1073.015625 332.050781 1080.265625 336.730469 C 1085.640625 340.46875 1096.164062 351.925781 1102.945312 351.691406 C 1103.644531 356.835938 1107.152344 358.707031 1110.894531 361.980469 C 1112.0625 362.214844 1113.933594 362.449219 1116.507812 362.683594 C 1111.128906 370.867188 1136.378906 384.195312 1141.058594 387.46875 C 1137.550781 376.476562 1126.328125 368.058594 1118.375 360.34375 C 1108.324219 350.523438 1097.332031 340.9375 1086.109375 332.285156 C 1076.523438 324.804688 1066.234375 317.554688 1056.414062 310.542969 C 1049.867188 305.867188 1028.824219 289.730469 1021.578125 291.601562 C 1015.265625 282.71875 1004.039062 278.507812 994.6875 273.832031 C 985.101562 269.15625 970.839844 257.933594 960.550781 257.933594 C 976.917969 271.027344 999.363281 285.523438 1019.238281 292.304688 Z M 1167.945312 984.398438 C 1169.582031 981.828125 1170.984375 979.488281 1173.089844 976.214844 C 1171.21875 976.683594 1170.515625 976.917969 1170.050781 976.917969 C 1194.367188 930.152344 1214.941406 882.222656 1224.761719 830.316406 C 1234.347656 780.042969 1238.324219 715.277344 1214.007812 668.28125 C 1213.773438 682.542969 1222.660156 697.742188 1221.722656 711.769531 C 1221.253906 722.058594 1217.980469 736.554688 1217.046875 748.246094 C 1214.242188 784.019531 1216.34375 821.898438 1210.734375 856.96875 C 1210.734375 796.644531 1217.046875 733.28125 1197.640625 675.292969 C 1188.519531 648.40625 1178.933594 621.28125 1167.476562 595.328125 C 1156.957031 571.480469 1140.355469 549.035156 1126.09375 527.054688 C 1097.332031 482.863281 1056.179688 447.089844 1013.625 416.226562 C 993.050781 401.261719 970.371094 388.167969 947.457031 377.414062 C 933.429688 370.867188 917.527344 366.191406 902.5625 361.511719 C 889.9375 357.539062 873.804688 350.054688 860.710938 349.355469 C 861.878906 350.757812 862.582031 351.460938 863.75 352.863281 C 810.675781 340.234375 751.988281 338.832031 697.976562 346.316406 C 673.425781 349.824219 646.769531 353.097656 623.855469 361.980469 C 612.398438 366.421875 600.707031 366.421875 589.71875 371.800781 C 581.535156 375.777344 572.648438 380.6875 565.167969 385.363281 C 546.230469 397.519531 526.121094 414.355469 510.222656 430.253906 C 493.386719 446.855469 473.746094 460.886719 456.910156 477.71875 C 422.304688 512.324219 403.367188 557.453125 379.519531 599.304688 C 383.726562 602.34375 370.632812 627.597656 369.464844 631.570312 C 366.191406 642.328125 362.683594 653.082031 360.109375 663.835938 C 353.796875 690.960938 351.226562 718.550781 348.421875 746.140625 C 345.847656 772.09375 348.421875 800.152344 352.863281 825.871094 C 355.199219 839.902344 357.773438 853.929688 361.746094 867.726562 C 364.554688 877.546875 375.074219 896.484375 371.335938 907.007812 C 366.191406 892.507812 361.515625 879.414062 356.835938 866.089844 C 364.789062 912.851562 393.3125 960.082031 418.566406 999.597656 C 431.425781 1019.707031 447.324219 1037.476562 462.988281 1055.246094 C 477.253906 1071.144531 494.554688 1083.304688 507.414062 1100.371094 C 507.179688 1100.605469 506.480469 1101.074219 505.777344 1101.773438 C 533.835938 1119.3125 560.492188 1137.78125 590.652344 1151.8125 C 621.285156 1166.308594 653.316406 1175.660156 686.285156 1183.609375 C 749.882812 1199.277344 813.480469 1197.640625 877.78125 1186.417969 C 910.28125 1180.804688 943.015625 1175.660156 973.410156 1162.332031 C 1000.53125 1150.640625 1026.488281 1132.640625 1050.570312 1115.335938 C 1075.121094 1097.800781 1098.035156 1077.925781 1119.078125 1056.414062 C 1129.367188 1046.125 1138.015625 1034.902344 1146.667969 1023.210938 C 1152.746094 1015.261719 1169.347656 994.921875 1167.945312 984.398438 Z M 336.964844 677.164062 C 333.921875 698.441406 328.078125 720.65625 327.144531 741.933594 C 326.441406 764.378906 327.609375 787.058594 328.078125 809.503906 C 328.78125 830.546875 335.328125 853.695312 341.171875 873.570312 C 343.976562 882.457031 343.511719 891.339844 347.015625 900.226562 C 348.652344 904.667969 354.734375 921.738281 359.644531 922.671875 C 355.199219 905.371094 350.058594 888.535156 345.378906 871.464844 C 340.46875 853.695312 339.535156 834.289062 336.964844 816.050781 C 332.285156 781.445312 335.09375 742.867188 339.535156 708.261719 C 348.652344 638.117188 372.738281 570.777344 412.253906 512.089844 C 411.785156 511.855469 411.550781 511.625 411.082031 511.15625 C 398.691406 522.144531 390.507812 537.578125 382.089844 551.605469 C 373.90625 565.167969 365.019531 576.859375 358.941406 591.589844 C 351.925781 608.191406 349.355469 622.453125 345.847656 639.753906 C 344.445312 646.769531 339.769531 674.125 331.820312 675.292969 C 334.625 676.230469 335.558594 676.464844 336.964844 677.164062 Z M 1003.339844 297.449219 C 1002.871094 297.914062 1002.171875 298.617188 1001.703125 299.085938 C 1044.957031 325.507812 1085.875 356.835938 1121.882812 392.609375 C 1138.71875 409.445312 1154.617188 427.449219 1169.113281 446.390625 C 1176.363281 455.742188 1184.3125 464.625 1191.09375 474.210938 C 1197.875 483.800781 1202.785156 495.722656 1213.304688 502.269531 C 1214.941406 517.703125 1227.800781 531.730469 1235.753906 544.824219 C 1236.21875 544.589844 1236.453125 544.359375 1236.921875 544.125 C 1230.609375 528.925781 1224.296875 513.726562 1217.75 498.0625 C 1216.8125 499.230469 1216.113281 499.933594 1214.941406 501.570312 C 1189.925781 461.820312 1162.101562 426.046875 1129.601562 391.910156 C 1109.960938 371.332031 1088.683594 354.734375 1065.769531 337.664062 C 1045.660156 322 1024.851562 310.777344 1003.339844 297.449219 Z M 1269.421875 673.425781 C 1270.125 662.199219 1261.707031 578.730469 1247.441406 580.367188 C 1250.484375 596.964844 1255.625 612.867188 1259.367188 629.234375 C 1262.875 643.730469 1262.875 660.097656 1269.421875 673.425781 Z M 870.53125 234.316406 C 897.652344 246.945312 924.777344 259.335938 951.898438 271.960938 C 934.597656 255.59375 892.976562 237.125 870.53125 234.316406 Z M 1305.664062 633.910156 C 1306.128906 633.910156 1306.597656 633.675781 1307.066406 633.675781 C 1302.390625 597.667969 1283.683594 560.257812 1267.082031 528.457031 C 1266.617188 528.691406 1266.148438 528.691406 1265.914062 528.925781 C 1269.890625 546.460938 1279.710938 562.128906 1287.191406 578.261719 C 1295.140625 596.03125 1300.050781 615.203125 1305.664062 633.910156 Z M 739.59375 1220.554688 C 752.6875 1221.957031 766.015625 1221.957031 779.109375 1222.890625 C 790.800781 1223.59375 805.53125 1228.269531 816.753906 1224.0625 C 816.753906 1223.59375 816.753906 1223.125 816.519531 1222.65625 C 802.023438 1221.488281 789.398438 1220.085938 775.367188 1217.28125 C 763.675781 1215.175781 751.050781 1215.410156 739.59375 1220.554688 Z M 917.292969 1217.046875 C 885.496094 1216.8125 852.527344 1217.515625 821.429688 1223.828125 C 853.929688 1224.292969 885.261719 1220.789062 917.292969 1217.046875 Z M 647.9375 1200.914062 C 672.722656 1212.835938 699.144531 1218.449219 726.734375 1219.152344 C 699.847656 1215.644531 673.425781 1209.796875 647.9375 1200.914062 Z M 1258.433594 693.066406 C 1259.367188 677.398438 1256.796875 662.199219 1254.222656 647.003906 C 1255.160156 662.433594 1254.691406 677.867188 1258.433594 693.066406 Z M 1072.316406 301.65625 C 1071.847656 302.125 1071.613281 302.359375 1071.144531 302.824219 C 1080.964844 311.007812 1090.785156 319.191406 1100.605469 327.375 C 1097.800781 315.21875 1081.667969 308.671875 1072.316406 301.65625 Z M 377.179688 957.277344 C 376.710938 950.964844 368.527344 933.660156 364.320312 930.152344 C 365.019531 936.46875 371.800781 950.964844 377.179688 957.277344 Z M 1125.625 405.9375 C 1126.09375 405.472656 1126.558594 405.003906 1127.027344 404.769531 C 1119.78125 397.519531 1112.53125 390.039062 1105.050781 382.789062 C 1104.582031 383.257812 1104.113281 383.726562 1103.878906 383.960938 C 1109.726562 392.609375 1118.144531 398.925781 1125.625 405.9375 Z M 970.605469 280.847656 C 978.320312 286.457031 985.570312 292.539062 995.625 295.578125 C 993.285156 288.09375 977.621094 283.183594 970.605469 280.847656 Z M 665.007812 207.195312 C 654.953125 208.363281 644.664062 209.066406 636.246094 215.378906 C 645.835938 212.574219 655.421875 210 665.007812 207.195312 Z M 477.71875 1255.160156 C 469.070312 1250.480469 460.183594 1246.039062 451.535156 1241.363281 C 459.484375 1247.441406 467.667969 1252.820312 477.71875 1255.160156 Z M 747.542969 195.972656 C 747.542969 196.4375 747.542969 196.90625 747.308594 197.609375 C 752.21875 197.140625 757.128906 199.011719 761.808594 195.972656 C 757.128906 195.972656 752.21875 195.972656 747.542969 195.972656 Z M 1274.800781 721.589844 C 1275.5 721.589844 1276.203125 721.589844 1276.902344 721.589844 C 1276.203125 715.980469 1275.5 710.601562 1274.800781 704.988281 C 1274.332031 704.988281 1273.863281 704.988281 1273.398438 705.222656 C 1273.863281 710.601562 1274.332031 716.210938 1274.800781 721.589844 Z M 1147.136719 427.214844 C 1144.328125 425.113281 1141.757812 423.242188 1139.1875 421.136719 C 1140.355469 427.917969 1141.757812 429.085938 1147.136719 427.214844 Z M 1067.871094 300.019531 C 1065.300781 294.875 1061.558594 292.539062 1056.414062 291.835938 C 1060.625 294.640625 1064.363281 297.449219 1067.871094 300.019531 Z M 318.257812 818.859375 C 318.492188 818.859375 318.726562 818.859375 318.726562 818.859375 C 318.726562 814.414062 318.726562 810.207031 318.726562 805.765625 C 318.492188 805.765625 318.257812 805.765625 318.257812 805.765625 C 318.257812 809.972656 318.257812 814.414062 318.257812 818.859375 Z M 937.402344 216.546875 C 937.167969 217.015625 936.933594 217.484375 936.933594 218.183594 C 939.507812 218.886719 942.078125 219.585938 944.886719 220.054688 C 945.117188 219.585938 945.117188 218.886719 945.351562 218.417969 C 942.546875 217.714844 939.976562 217.015625 937.402344 216.546875 Z M 338.601562 1148.539062 C 338.367188 1148.773438 338.367188 1148.773438 338.132812 1149.007812 C 339.769531 1150.875 341.40625 1152.511719 343.042969 1154.382812 C 343.511719 1153.917969 343.976562 1153.449219 344.210938 1153.214844 C 342.339844 1151.578125 340.46875 1149.941406 338.601562 1148.539062 Z M 318.960938 793.371094 C 318.726562 793.371094 318.492188 793.371094 318.492188 793.371094 C 318.492188 795.945312 318.492188 798.75 318.492188 801.320312 C 318.726562 801.320312 318.960938 801.320312 318.960938 801.320312 C 318.960938 798.75 318.960938 795.945312 318.960938 793.371094 Z M 677.632812 1194.601562 C 677.632812 1194.367188 677.867188 1194.132812 677.867188 1194.132812 C 676.230469 1194.132812 674.59375 1194.132812 672.722656 1194.132812 C 672.722656 1194.367188 672.722656 1194.601562 672.722656 1194.601562 C 674.59375 1194.601562 675.996094 1194.601562 677.632812 1194.601562 Z M 925.246094 212.804688 C 925.246094 213.039062 925.011719 213.507812 925.011719 213.742188 C 926.648438 214.210938 928.519531 214.910156 930.15625 215.378906 C 930.15625 214.910156 930.386719 214.675781 930.386719 214.210938 C 928.75 213.742188 926.882812 213.273438 925.246094 212.804688 Z M 1211.203125 663.605469 C 1211.433594 663.371094 1211.667969 663.371094 1212.136719 663.136719 C 1211.433594 661.734375 1210.5 660.332031 1209.796875 659.160156 C 1209.566406 659.394531 1209.332031 659.394531 1208.863281 659.628906 C 1209.796875 660.796875 1210.5 662.199219 1211.203125 663.605469 Z M 376.011719 1189.222656 C 376.246094 1188.988281 376.476562 1188.753906 376.710938 1188.519531 C 375.777344 1187.820312 374.839844 1186.882812 373.90625 1186.183594 C 373.671875 1186.417969 373.671875 1186.648438 373.4375 1186.882812 C 374.140625 1187.820312 375.074219 1188.519531 376.011719 1189.222656 Z M 689.792969 1196.003906 C 689.792969 1195.769531 689.792969 1195.769531 689.792969 1195.535156 C 688.390625 1195.535156 686.984375 1195.535156 685.582031 1195.535156 C 685.582031 1195.769531 685.582031 1195.769531 685.582031 1196.003906 C 686.984375 1196.003906 688.390625 1196.003906 689.792969 1196.003906 Z M 1130.300781 407.808594 C 1129.832031 408.042969 1129.601562 408.277344 1129.132812 408.746094 C 1130.300781 409.914062 1131.238281 411.316406 1132.40625 412.484375 C 1132.640625 412.25 1132.640625 412.019531 1133.105469 411.550781 C 1132.40625 410.148438 1131.46875 408.976562 1130.300781 407.808594 Z M 1168.648438 456.441406 C 1168.878906 456.210938 1169.347656 455.976562 1169.582031 455.976562 C 1168.878906 454.574219 1167.945312 453.167969 1167.242188 451.765625 C 1166.777344 452 1166.542969 452.234375 1166.074219 452.46875 C 1167.011719 453.636719 1167.945312 455.039062 1168.648438 456.441406 Z M 1213.539062 487.074219 C 1212.839844 483.097656 1212.839844 483.097656 1209.097656 480.527344 C 1210.96875 483.097656 1211.902344 484.5 1213.539062 487.074219 Z M 318.257812 785.890625 C 318.960938 784.953125 318.726562 784.488281 317.558594 784.019531 C 316.855469 785.1875 317.089844 785.65625 318.257812 785.890625 Z M 318.257812 785.890625 " fill-opacity="1" fill-rule="nonzero"/><path fill="#465548" d="M 1011.992188 1267.785156 C 1019.472656 1264.746094 1026.71875 1261.707031 1034.203125 1258.433594 C 1034.4375 1258.898438 1034.671875 1259.367188 1034.902344 1260.070312 C 1027.421875 1263.109375 1020.875 1268.253906 1011.992188 1267.785156 C 1011.992188 1267.550781 1011.992188 1267.785156 1011.992188 1267.785156 Z M 1011.992188 1267.785156 " fill-opacity="1" fill-rule="nonzero"/><path fill="#465548" d="M 640.925781 1312.675781 C 647.003906 1313.847656 653.082031 1315.015625 659.160156 1316.183594 C 652.613281 1317.585938 646.769531 1316.652344 640.691406 1314.3125 C 640.691406 1313.847656 640.925781 1313.144531 640.925781 1312.675781 Z M 640.925781 1312.675781 " fill-opacity="1" fill-rule="nonzero"/><path fill="#465548" d="M 1096.164062 1202.550781 C 1090.085938 1208.160156 1082.367188 1210.5 1074.652344 1212.605469 C 1081.902344 1209.097656 1089.148438 1205.824219 1096.164062 1202.550781 Z M 1096.164062 1202.550781 " fill-opacity="1" fill-rule="nonzero"/><path fill="#465548" d="M 1105.28125 1201.148438 C 1103.878906 1200.914062 1102.710938 1200.679688 1101.308594 1200.445312 C 1104.347656 1199.042969 1106.917969 1196.46875 1110.894531 1197.40625 C 1110.894531 1197.40625 1110.660156 1197.171875 1110.660156 1197.171875 C 1109.960938 1198.105469 1109.726562 1199.511719 1108.789062 1200.210938 C 1108.089844 1200.914062 1106.453125 1200.914062 1105.28125 1201.148438 Z M 1105.28125 1201.148438 " fill-opacity="1" fill-rule="nonzero"/><path fill="#465548" d="M 1093.359375 1209.097656 C 1095.460938 1205.355469 1099.4375 1204.652344 1102.945312 1203.015625 C 1099.671875 1205.121094 1096.632812 1206.992188 1093.359375 1209.097656 Z M 1093.359375 1209.097656 " fill-opacity="1" fill-rule="nonzero"/><path fill="#465548" d="M 1110.660156 1197.171875 C 1110.660156 1197.171875 1110.894531 1197.40625 1110.660156 1197.171875 C 1110.425781 1194.601562 1112.0625 1194.367188 1114.636719 1194.132812 C 1114.402344 1197.171875 1112.53125 1197.171875 1110.660156 1197.171875 Z M 1110.660156 1197.171875 " fill-opacity="1" fill-rule="nonzero"/><path fill="#465548" d="M 1100.839844 1210.03125 C 1102.476562 1209.097656 1103.878906 1208.160156 1105.515625 1207.226562 C 1105.75 1207.460938 1105.75 1207.695312 1105.984375 1207.925781 C 1104.582031 1208.863281 1102.945312 1210.03125 1101.542969 1210.96875 C 1101.308594 1210.5 1101.074219 1210.265625 1100.839844 1210.03125 Z M 1100.839844 1210.03125 " fill-opacity="1" fill-rule="nonzero"/><path fill="#465548" d="M 1089.382812 1217.515625 C 1091.253906 1216.34375 1092.890625 1214.941406 1094.761719 1213.773438 C 1094.996094 1214.242188 1095.230469 1214.472656 1095.460938 1214.941406 C 1093.59375 1215.878906 1091.722656 1217.046875 1089.851562 1217.980469 C 1089.617188 1217.746094 1089.382812 1217.515625 1089.382812 1217.515625 Z M 1089.382812 1217.515625 " fill-opacity="1" fill-rule="nonzero"/><path fill="#465548" d="M 417.628906 944.652344 C 406.40625 916.828125 389.570312 889.703125 382.558594 860.242188 C 379.285156 846.214844 378.113281 831.484375 376.710938 817.222656 C 375.777344 806.933594 370.398438 785.890625 375.777344 776.769531 C 377.882812 797.347656 377.414062 818.15625 381.15625 838.730469 C 383.726562 853.230469 386.296875 877.546875 395.417969 889.003906 C 392.378906 866.789062 385.128906 845.511719 383.960938 823.066406 C 404.769531 905.371094 441.011719 985.101562 505.3125 1043.085938 C 534.070312 1069.039062 571.480469 1091.019531 607.253906 1106.453125 C 628.53125 1115.570312 650.277344 1123.753906 672.722656 1130.066406 C 683.710938 1133.105469 694.703125 1136.144531 705.925781 1138.484375 C 712.472656 1139.886719 734.21875 1140.589844 737.023438 1148.304688 C 673.191406 1148.304688 608.425781 1122.820312 553.710938 1091.019531 C 493.621094 1056.414062 454.105469 1001.46875 417.628906 944.652344 Z M 417.628906 944.652344 " fill-opacity="1" fill-rule="nonzero"/><path fill="#465548" d="M 425.113281 974.578125 C 444.753906 995.855469 458.082031 1022.042969 478.421875 1043.320312 C 497.59375 1063.195312 519.808594 1081.433594 542.019531 1097.800781 C 529.394531 1095.460938 517.234375 1081.433594 507.648438 1073.484375 C 496.191406 1064.128906 485.203125 1054.078125 474.914062 1043.554688 C 455.273438 1023.445312 437.269531 999.832031 423.710938 975.28125 C 424.175781 975.28125 424.644531 974.8125 425.113281 974.578125 Z M 425.113281 974.578125 " fill-opacity="1" fill-rule="nonzero"/><path fill="#465548" d="M 581.300781 1122.351562 C 608.191406 1136.847656 637.183594 1145.734375 665.941406 1155.554688 C 652.613281 1156.253906 593.695312 1133.105469 581.300781 1122.351562 Z M 581.300781 1122.351562 " fill-opacity="1" fill-rule="nonzero"/><path fill="#465548" d="M 804.828125 1155.554688 C 790.566406 1155.785156 776.070312 1156.253906 762.507812 1150.410156 C 776.769531 1150.175781 791.035156 1151.34375 804.828125 1155.554688 Z M 804.828125 1155.554688 " fill-opacity="1" fill-rule="nonzero"/><path fill="#465548" d="M 893.914062 1159.058594 C 882.921875 1163.503906 871.699219 1166.542969 859.542969 1165.839844 C 867.492188 1159.761719 884.558594 1156.253906 893.914062 1159.058594 Z M 893.914062 1159.058594 " fill-opacity="1" fill-rule="nonzero"/><path fill="#465548" d="M 920.800781 1151.109375 C 927.582031 1145.964844 941.144531 1141.289062 949.796875 1140.121094 C 950.027344 1140.589844 950.027344 1141.054688 950.261719 1141.523438 C 940.910156 1145.265625 931.324219 1149.007812 921.972656 1152.746094 C 921.503906 1152.28125 921.269531 1151.8125 920.800781 1151.109375 Z M 920.800781 1151.109375 " fill-opacity="1" fill-rule="nonzero"/><path fill="#465548" d="M 899.757812 1157.890625 C 906.539062 1152.746094 910.980469 1151.34375 917.996094 1152.511719 C 911.917969 1156.722656 905.371094 1156.019531 899.757812 1157.890625 Z M 899.757812 1157.890625 " fill-opacity="1" fill-rule="nonzero"/><path fill="#465548" d="M 835.226562 1169.113281 C 841.070312 1167.007812 846.917969 1164.90625 853.464844 1166.074219 C 849.253906 1169.816406 840.835938 1170.984375 835.226562 1169.113281 Z M 835.226562 1169.113281 " fill-opacity="1" fill-rule="nonzero"/><path fill="#465548" d="M 1117.675781 1052.207031 C 1121.417969 1048.933594 1125.390625 1045.660156 1129.132812 1042.152344 C 1129.132812 1041.917969 1128.898438 1041.917969 1128.898438 1041.683594 C 1125.390625 1045.425781 1121.882812 1049.167969 1118.609375 1052.90625 C 1118.144531 1052.671875 1117.910156 1052.441406 1117.675781 1052.207031 Z M 1117.675781 1052.207031 " fill-opacity="1" fill-rule="nonzero"/><path fill="#465548" d="M 417.394531 944.417969 C 413.1875 946.753906 408.511719 936.699219 407.574219 933.425781 C 411.550781 938.105469 414.589844 941.378906 417.394531 944.417969 C 417.628906 944.652344 417.394531 944.417969 417.394531 944.417969 Z M 417.394531 944.417969 " fill-opacity="1" fill-rule="nonzero"/><path fill="#465548" d="M 988.84375 1149.472656 C 992.816406 1147.601562 996.792969 1145.5 1001.46875 1143.394531 C 997.726562 1147.601562 996.792969 1148.070312 988.84375 1149.472656 Z M 988.84375 1149.472656 " fill-opacity="1" fill-rule="nonzero"/><path fill="#465548" d="M 797.347656 1173.324219 C 794.074219 1173.324219 791.035156 1173.324219 787.761719 1173.324219 C 791.035156 1171.6875 794.308594 1170.75 797.347656 1173.324219 Z M 797.347656 1173.324219 " fill-opacity="1" fill-rule="nonzero"/><path fill="#465548" d="M 804.59375 1172.855469 C 802.957031 1172.855469 801.320312 1172.855469 799.453125 1172.855469 C 799.453125 1172.386719 799.453125 1172.152344 799.453125 1171.6875 C 801.089844 1171.453125 802.957031 1171.453125 804.59375 1171.21875 C 804.59375 1171.917969 804.59375 1172.386719 804.59375 1172.855469 Z M 804.59375 1172.855469 " fill-opacity="1" fill-rule="nonzero"/><path fill="#465548" d="M 959.617188 1134.976562 C 961.253906 1134.742188 962.65625 1134.507812 965.695312 1134.042969 C 963.121094 1136.378906 963.824219 1136.144531 959.617188 1136.613281 C 959.617188 1135.914062 959.617188 1135.445312 959.617188 1134.976562 Z M 959.617188 1134.976562 " fill-opacity="1" fill-rule="nonzero"/><path fill="#465548" d="M 951.898438 1138.484375 C 953.070312 1138.015625 954.003906 1137.550781 956.574219 1136.613281 C 954.9375 1139.417969 955.40625 1140.355469 952.132812 1139.886719 C 952.132812 1139.417969 952.132812 1138.953125 951.898438 1138.484375 Z M 951.898438 1138.484375 " fill-opacity="1" fill-rule="nonzero"/><path fill="#465548" d="M 1130.535156 1037.007812 C 1131.9375 1035.839844 1133.339844 1034.667969 1134.742188 1033.5 C 1134.976562 1033.734375 1135.210938 1033.96875 1135.679688 1034.203125 C 1134.511719 1035.839844 1133.105469 1037.007812 1131.46875 1038.175781 C 1131.003906 1037.710938 1130.769531 1037.476562 1130.535156 1037.007812 Z M 1130.535156 1037.007812 " fill-opacity="1" fill-rule="nonzero"/><path fill="#465548" d="M 1308.703125 717.382812 C 1308.703125 715.980469 1308.703125 714.574219 1308.703125 713.171875 C 1308.9375 713.171875 1308.9375 713.171875 1309.171875 713.171875 C 1309.171875 714.574219 1309.171875 715.980469 1309.171875 717.382812 C 1308.9375 717.382812 1308.703125 717.382812 1308.703125 717.382812 Z M 1308.703125 717.382812 " fill-opacity="1" fill-rule="nonzero"/></svg>